<svg data-v-f4ce37d2="" width="13" height="11" viewBox="0 0 13 11" fill="none" xmlns="http://www.w3.org/2000/svg"><path data-v-f4ce37d2="" d="M1.26767 6.77126H1.24937L9.04118 6.77126L6.59172 9.28709C6.47291 9.41046 6.4063 9.57682 6.4063 9.75015C6.4063 9.92348 6.47291 10.0898 6.59172 10.2132L6.97181 10.5998C7.09131 10.7216 7.25301 10.79 7.42158 10.79C7.59014 10.79 7.75185 10.7216 7.87135 10.5998L12.0706 6.2981C12.1893 6.17497 12.2559 6.00885 12.2559 5.83576C12.2559 5.66267 12.1893 5.49655 12.0706 5.37342L7.87276 1.07026C7.75326 0.94843 7.59155 0.880039 7.42299 0.880039C7.25442 0.880039 7.09271 0.94843 6.97322 1.07026L6.59172 1.46119C6.53242 1.52166 6.48545 1.59362 6.45354 1.67287C6.42164 1.75212 6.40545 1.83709 6.4059 1.92281C6.40554 2.00724 6.42182 2.09088 6.45375 2.16871C6.48568 2.24654 6.5326 2.31697 6.59172 2.37578L9.06792 4.90315L1.25782 4.90315C1.08638 4.90688 0.923082 4.97883 0.802486 5.10375C0.681891 5.22868 0.613458 5.39678 0.611668 5.57249V6.12499C0.616096 6.29948 0.687432 6.46515 0.81022 6.58611C0.933007 6.70708 1.09736 6.7736 1.26767 6.77126Z" fill="white"></path></svg>